<svg xmlns="http://www.w3.org/2000/svg" viewBox="0 0 1782.46 1779.54"><title>favicon</title><g id="Capa_2" data-name="Capa 2"><g id="Capa_1-2" data-name="Capa 1"><path d="M1124.44,28.35c33.09,9.15,45.8,32.92,36.32,67.23l-.34,1.21c-7.64,27.63-22.63,40.48-44,41.1l-.34,1.21c21.65,11.54,29.62,32.37,21.47,61.82l-.42,1.52c-9.73,35.22-33.84,49.14-69.06,39.4l-44.33-12.25,58.84-212.83Zm-85.66,194,32.19,8.9c27.62,7.64,45.7-3.38,53.68-32.22l1.26-4.55c7.89-28.54-2.49-47.75-30.42-55.48l-31.27-8.64Zm28.46-102.92,29.45,8.14c26.11,7.22,43.11-3.44,50.83-31.37l1.09-4c7.72-27.93-1.38-45.81-27.49-53l-29.45-8.14Z"/><path d="M1264.77,91.55l-40.58,80.79,54.6,27.43-5,9.85-54.6-27.43-43.55,86.7,59.39,29.83-4.95,9.85-70.65-35.49,99-197,68.4,34.36-4.95,9.85Z"/><path d="M1478.73,217.17,1343,391l-14.4-11.24L1399,174.91l-.74-.58L1273.49,336.66l-9.93-7.75,135.72-173.78,14.4,11.24-70.17,205,.74.58L1468.8,209.42Z"/><path d="M1542.49,296.77l-68.49,59,39.88,46.3-8.35,7.19L1465.64,363l-73.5,63.32,43.38,50.36-8.35,7.2L1375.56,424,1542.62,280l50,58-8.35,7.19Z"/><path d="M1666.26,449.54c13.48,23.86,13.42,53.2-21.14,72.72l-97.64,55.16c-34.83,19.67-59.72,4.43-73.2-19.43l-24-42.51,192-108.45ZM1466.06,521l17.82,31.54c10.07,17.83,29.16,29.84,57.4,13.89l97.64-55.16c28.25-16,27.54-38.34,17.47-56.17l-17.81-31.54Z"/><path d="M1728.05,583.24l-206.57,77.1-4.4-11.8,206.57-77.11Z"/><path d="M1590.77,705.82c-32.12,6.45-39,28.38-34.93,48.46,4,19.76,18.75,37.36,50.87,30.91l35.51-7.13,2.48,12.35-34.9,7c-39.53,7.93-59.37-14.11-64.83-41.28-5.39-26.87,4.1-54.8,43.94-62.8l113.65-22.81c39.53-7.94,59.38,14.1,64.77,41,5.46,27.18-4.34,55.17-43.87,63.1l-34.9,7-2.48-12.35,35.21-7.07c32.42-6.51,39-28.38,35-48.15-4-20.07-18.5-37.73-50.93-31.22Z"/><path d="M1771.44,930.89l-.68-41.89-209.45,3.4-.2-12.6,209.44-3.39-.68-42.21,11-.18,1.57,96.69Z"/><path d="M1469.21,1116.38l255.31,103.87-4.75,11.67-255.31-103.87Z"/><path d="M1521.84,1517.47c-24.38,24.17-51.33,23.39-76.39-1.88l-.89-.89c-20.18-20.36-23.89-39.75-13.79-58.64l-.89-.9c-20.77,13.06-42.8,9.63-64.32-12.07l-1.11-1.12c-25.73-25.94-25.84-53.79.11-79.52l32.65-32.38,155.5,156.78ZM1396,1346.77l-23.71,23.51c-20.35,20.19-19.77,41.35,1.3,62.6l3.33,3.35c20.85,21,42.68,21.56,63.25,1.15l23-22.84Zm75.2,75.82-21.7,21.52c-19.24,19.07-18.43,39.12,2,59.7l2.88,2.91c20.41,20.57,40.45,21.55,59.69,2.47l21.69-21.51Z"/><path d="M1397.6,1607.78l-50.11-75.25-50.86,33.87-6.11-9.18,50.86-33.87-53.77-80.76-55.32,36.84-6.11-9.17,65.81-43.83L1414.2,1610l-63.71,42.42-6.11-9.17Z"/><path d="M1182.45,1731.51l-83.7-204,16.9-6.94,143,162.65.88-.36L1180.35,1494l11.66-4.78,83.7,204-16.91,6.94-143.29-162.53-.87.36,79.47,188.71Z"/><path d="M1081.32,1747.42l-17.11-88.77-60,11.57-2.08-10.83,60-11.57-18.36-95.27-65.27,12.59-2.08-10.83,77.63-15,41.74,216.52-75.16,14.49-2.09-10.83Z"/><path d="M884.87,1778.75c-27.4-.45-52.68-15.35-52-55l1.82-112.13c.64-40,26.39-53.76,53.79-53.31l48.82.79-3.58,220.47Zm39.62-208.86-36.22-.59c-20.47-.33-40.49,10.06-41,42.5l-1.82,112.12c-.52,32.44,19.15,43.16,39.62,43.49l36.22.59Z"/><path d="M740.87,1766.13l35.36-217.65,12.44,2L753.3,1768.15Z"/><path d="M702.42,1586.15c10.3-31.09-5.36-47.9-24.8-54.34-19.13-6.35-41.74-2.22-52,28.87l-11.4,34.39-12-4,11.2-33.78c12.68-38.28,41.66-44.6,68-35.88,26,8.62,45.57,30.7,32.79,69.27l-36.47,110c-12.69,38.27-41.66,44.59-67.68,36-26.31-8.72-45.77-31.1-33.08-69.37l11.2-33.79,12,4-11.3,34.09c-10.41,31.39,5.36,47.9,24.49,54.25,19.44,6.44,41.94,2.61,52.35-28.78Z"/><path d="M414.34,1628.9l36.4,20.74,103.72-182,10.95,6.24-103.72,182,36.67,20.9-5.46,9.58-84-47.88Z"/><path d="M406.37,1276.68,189.65,1447l-7.78-9.91,216.72-170.3Z"/><path d="M31.81,1123.42c-8.87-33.17,5.19-56.16,39.58-65.36l1.22-.33c27.69-7.4,46.36-1,57.74,17.17l1.21-.32c-1-24.51,12.92-41.93,42.44-49.83l1.52-.4c35.3-9.44,59.52,4.3,69,39.6l11.88,44.43L43,1165.42Zm107.48,3.22-7.89-29.52c-7-26.17-24.8-35.43-52.8-27.95l-3.95,1.06c-28,7.49-38.8,24.4-31.81,50.57l7.9,29.52Zm103.16-27.59-8.62-32.26c-7.41-27.69-26.06-37.7-55-30l-4.57,1.22c-28.6,7.65-39.91,26.33-32.43,54.32l8.39,31.35Z"/><path d="M15.24,970.56l90.21-6-4.06-61,11-.73,4.06,61,96.8-6.44-4.41-66.32,11-.73,5.25,78.89-220,14.63L0,907.49l11-.74Z"/><path d="M14.65,722.8l218.66,28.39L231,769.3,18.83,812.91l-.12.94L222,838.65l-1.63,12.5L1.67,822.76,4,804.64l212.17-43.92.12-.94L13,735.29Z"/><path d="M50.91,627.06l85.59,29.11,19.67-57.86,10.44,3.55-19.67,57.86L238.79,691,260.19,628l10.44,3.55-25.46,74.86-208.76-71L61.06,563l10.43,3.55Z"/><path d="M120,442.8c13.76-23.69,39.11-38.48,73.43-18.55l97,56.31c34.6,20.09,34,49.28,20.28,73l-24.52,42.22L95.49,485ZM283,579.33,301.16,548c10.28-17.71,11-40.25-17.07-56.54l-97-56.31c-28.05-16.3-47-4.36-57.29,13.35l-18.19,31.32Z"/><path d="M204,321.94l171.16,139-7.94,9.78L196,331.72Z"/><path d="M379.16,378.14c21.89,24.38,44.26,19.12,59.49,5.44,15-13.47,22.64-35.14.76-59.52l-24.2-27,9.37-8.41,23.78,26.48c26.94,30,18.05,58.3-2.58,76.82-20.39,18.31-49.27,24.34-76.41-5.9l-77.44-86.26c-26.94-30-18.05-58.3,2.34-76.61,20.63-18.52,49.72-24.31,76.65,5.69L394.7,255.4l-9.38,8.42-24-26.72c-22.09-24.62-44.25-19.12-59.25-5.65-15.24,13.68-23.08,35.11-1,59.73Z"/><path d="M484.65,106.76l-36,21.36,106.83,180.2-10.84,6.42L437.77,134.55l-36.31,21.53-5.62-9.49L479,97.27Z"/><path d="M794.42,274.55,754.61,1.82,767.07,0l39.82,272.73Z"/></g></g></svg>